<svg width="73" height="74" viewBox="0 0 73 74" fill="none" xmlns="http://www.w3.org/2000/svg">
<g filter="url(#filter0_d_211_4)">
<path fill-rule="evenodd" clip-rule="evenodd" d="M21.3344 5.96478C23.9477 5.75422 26.4285 4.7169 28.4236 3.00055C30.677 1.06372 33.5401 0 36.5 0C39.4599 0 42.323 1.06372 44.5764 3.00055C46.5715 4.7169 49.0523 5.75422 51.6656 5.96478C54.6168 6.20281 57.3874 7.49389 59.4809 9.60658C61.5743 11.7193 62.8537 14.5154 63.0895 17.4937C63.2967 20.1299 64.3246 22.635 66.0268 24.648C67.946 26.9221 69 29.8116 69 32.7986C69 35.7857 67.946 38.6752 66.0268 40.9492C64.3261 42.9626 63.2982 45.4663 63.0895 48.1036C62.8537 51.0819 61.5743 53.878 59.4809 55.9907C57.3874 58.1034 54.6168 59.3945 51.6656 59.6325C49.0523 59.8431 46.5715 60.8804 44.5764 62.5967C42.323 64.5335 39.4599 65.5973 36.5 65.5973C33.5401 65.5973 30.677 64.5335 28.4236 62.5967C26.4285 60.8804 23.9477 59.8431 21.3344 59.6325C18.3832 59.3945 15.6126 58.1034 13.5191 55.9907C11.4257 53.878 10.1463 51.0819 9.91047 48.1036C9.70182 45.4663 8.67395 42.9626 6.97323 40.9492C5.05404 38.6752 4 35.7857 4 32.7986C4 29.8116 5.05404 26.9221 6.97323 24.648C8.67395 22.6346 9.70182 20.131 9.91047 17.4937C10.1463 14.5154 11.4257 11.7193 13.5191 9.60658C15.6126 7.49389 18.3832 6.20281 21.3344 5.96478ZM51.56 27.4975C52.3 26.7242 52.7095 25.6886 52.7002 24.6136C52.691 23.5386 52.2637 22.5103 51.5105 21.7501C50.7572 20.99 49.7383 20.5588 48.6731 20.5495C47.6079 20.5401 46.5817 20.9534 45.8155 21.7002L32.4374 35.2012L27.1845 29.9C26.4183 29.1532 25.3921 28.7399 24.3269 28.7493C23.2617 28.7586 22.2428 29.1898 21.4895 29.9499C20.7363 30.7101 20.309 31.7384 20.2998 32.8134C20.2905 33.8884 20.7 34.924 21.4401 35.6973L29.5652 43.8971C30.327 44.6657 31.3602 45.0975 32.4374 45.0975C33.5147 45.0975 34.5478 44.6657 35.3097 43.8971L51.56 27.4975Z" fill="#1C1E53"/>
</g>
<defs>
<filter id="filter0_d_211_4" x="0" y="0" width="73" height="73.5973" filterUnits="userSpaceOnUse" color-interpolation-filters="sRGB">
<feFlood flood-opacity="0" result="BackgroundImageFix"/>
<feColorMatrix in="SourceAlpha" type="matrix" values="0 0 0 0 0 0 0 0 0 0 0 0 0 0 0 0 0 0 127 0" result="hardAlpha"/>
<feOffset dy="4"/>
<feGaussianBlur stdDeviation="2"/>
<feComposite in2="hardAlpha" operator="out"/>
<feColorMatrix type="matrix" values="0 0 0 0 0 0 0 0 0 0 0 0 0 0 0 0 0 0 0.25 0"/>
<feBlend mode="normal" in2="BackgroundImageFix" result="effect1_dropShadow_211_4"/>
<feBlend mode="normal" in="SourceGraphic" in2="effect1_dropShadow_211_4" result="shape"/>
</filter>
</defs>
</svg>
