<svg width="73" height="74" viewBox="0 0 73 74" fill="none" xmlns="http://www.w3.org/2000/svg">
<g filter="url(#filter0_d_211_12)">
<path d="M30.1341 22.1296C30.7637 21.7089 31.5397 21.329 32.4375 21.0391V27.9745C31.6239 27.7181 30.8489 27.3512 30.1341 26.8839C28.6594 25.8955 28.375 24.9724 28.375 24.5068C28.375 24.0411 28.6594 23.118 30.1341 22.1296ZM40.5625 44.3123V37.3769C41.4562 37.6669 42.2363 38.0467 42.8659 38.4674C44.3447 39.46 44.625 40.379 44.625 40.8446C44.625 41.3102 44.3406 42.2333 42.8659 43.2217C42.1511 43.689 41.3761 44.0559 40.5625 44.3123Z" fill="#1C1E53"/>
<path fill-rule="evenodd" clip-rule="evenodd" d="M36.5 65.3513C45.1195 65.3513 53.386 61.9087 59.481 55.7809C65.5759 49.653 69 41.3418 69 32.6757C69 24.0095 65.5759 15.6984 59.481 9.57048C53.386 3.44261 45.1195 0 36.5 0C27.8805 0 19.614 3.44261 13.519 9.57048C7.4241 15.6984 4 24.0095 4 32.6757C4 41.3418 7.4241 49.653 13.519 55.7809C19.614 61.9087 27.8805 65.3513 36.5 65.3513ZM40.5625 12.2534C40.5625 11.1701 40.1345 10.1312 39.3726 9.36523C38.6108 8.59925 37.5774 8.16892 36.5 8.16892C35.4226 8.16892 34.3892 8.59925 33.6274 9.36523C32.8655 10.1312 32.4375 11.1701 32.4375 12.2534V12.6291C30.0109 13.0635 27.6956 13.9829 25.6287 15.3331C22.6956 17.2936 20.25 20.4591 20.25 24.5068C20.25 28.5504 22.6956 31.7158 25.6287 33.6805C27.5787 34.9875 29.9106 35.9065 32.4375 36.3844V44.3123C30.8491 43.7936 29.675 43.0175 29.0128 42.2537C28.6691 41.8297 28.2443 41.4794 27.7634 41.2236C27.2825 40.9678 26.7554 40.8118 26.2134 40.7647C25.6714 40.7176 25.1255 40.7804 24.6081 40.9494C24.0907 41.1185 23.6123 41.3903 23.2014 41.7487C22.7904 42.1072 22.4553 42.5449 22.2158 43.0361C21.9763 43.5272 21.8374 44.0617 21.8073 44.6078C21.7772 45.154 21.8565 45.7006 22.0405 46.2154C22.2245 46.7301 22.5094 47.2025 22.8784 47.6044C25.1616 50.2552 28.6187 51.9993 32.4375 52.7222V53.098C32.4375 54.1812 32.8655 55.2201 33.6274 55.9861C34.3892 56.7521 35.4226 57.1824 36.5 57.1824C37.5774 57.1824 38.6108 56.7521 39.3726 55.9861C40.1345 55.2201 40.5625 54.1812 40.5625 53.098V52.7222C42.9891 52.2879 45.3044 51.3684 47.3713 50.0183C50.3044 48.0577 52.75 44.8923 52.75 40.8446C52.75 36.801 50.3044 33.6355 47.3713 31.6709C45.3044 30.3207 42.9891 29.4013 40.5625 28.967V21.039C42.1509 21.5578 43.325 22.3338 43.9872 23.0976C44.3341 23.5114 44.7593 23.8518 45.2381 24.099C45.717 24.3461 46.2399 24.4951 46.7766 24.5374C47.3132 24.5796 47.8528 24.5142 48.3641 24.3449C48.8753 24.1757 49.348 23.906 49.7547 23.5515C50.1614 23.197 50.494 22.7647 50.7331 22.2799C50.9723 21.7951 51.1132 21.2673 51.1477 20.7272C51.1822 20.1872 51.1096 19.6456 50.9342 19.134C50.7587 18.6223 50.4839 18.1509 50.1256 17.747C47.8384 15.0962 44.3853 13.3521 40.5625 12.6291V12.2534Z" fill="#1C1E53"/>
</g>
<defs>
<filter id="filter0_d_211_12" x="0" y="0" width="73" height="73.3513" filterUnits="userSpaceOnUse" color-interpolation-filters="sRGB">
<feFlood flood-opacity="0" result="BackgroundImageFix"/>
<feColorMatrix in="SourceAlpha" type="matrix" values="0 0 0 0 0 0 0 0 0 0 0 0 0 0 0 0 0 0 127 0" result="hardAlpha"/>
<feOffset dy="4"/>
<feGaussianBlur stdDeviation="2"/>
<feComposite in2="hardAlpha" operator="out"/>
<feColorMatrix type="matrix" values="0 0 0 0 0 0 0 0 0 0 0 0 0 0 0 0 0 0 0.25 0"/>
<feBlend mode="normal" in2="BackgroundImageFix" result="effect1_dropShadow_211_12"/>
<feBlend mode="normal" in="SourceGraphic" in2="effect1_dropShadow_211_12" result="shape"/>
</filter>
</defs>
</svg>
