<svg width="73" height="75" viewBox="0 0 73 75" fill="none" xmlns="http://www.w3.org/2000/svg">
<g filter="url(#filter0_d_211_10)">
<path d="M4 35.5082C4 34.6853 4.16208 33.8705 4.47698 33.1102C4.79189 32.35 5.25345 31.6592 5.83531 31.0774C6.41718 30.4955 7.10795 30.0339 7.8682 29.719C8.62844 29.4041 9.44327 29.242 10.2662 29.242C11.089 29.242 11.9039 29.4041 12.6641 29.719C13.4243 30.0339 14.1151 30.4955 14.697 31.0774C15.2789 31.6592 15.7404 32.35 16.0553 33.1102C16.3702 33.8705 16.5323 34.6853 16.5323 35.5082V60.5728C16.5323 62.2347 15.8721 63.8285 14.697 65.0036C13.5219 66.1788 11.928 66.8389 10.2662 66.8389C8.60426 66.8389 7.01044 66.1788 5.83531 65.0036C4.66018 63.8285 4 62.2347 4 60.5728V35.5082ZM20.7097 34.8106V57.494C20.709 59.0466 21.1409 60.5687 21.957 61.8895C22.7731 63.2103 23.9411 64.2776 25.33 64.9716L25.5389 65.0761C27.8568 66.2346 30.4125 66.8381 33.0039 66.8389H55.6289C57.5611 66.8397 59.4338 66.1708 60.9282 64.946C62.4226 63.7212 63.4463 62.0163 63.825 60.1216L68.838 35.057C69.0802 33.845 69.0505 32.5944 68.7511 31.3953C68.4516 30.1961 67.8899 29.0783 67.1063 28.1225C66.3227 27.1667 65.3368 26.3967 64.2196 25.8679C63.1025 25.3391 61.882 25.0647 60.646 25.0646H45.7743V8.35487C45.7743 6.13902 44.8941 4.01393 43.3273 2.44708C41.7604 0.880242 39.6353 0 37.4195 0C36.3115 0 35.249 0.440121 34.4656 1.22354C33.6822 2.00696 33.242 3.06951 33.242 4.17743V6.96378C33.242 10.5793 32.0694 14.0972 29.9001 16.9896L24.0517 24.7847C21.8824 27.6771 20.7097 31.1951 20.7097 34.8106Z" fill="#1C1E53"/>
</g>
<defs>
<filter id="filter0_d_211_10" x="0" y="0" width="73" height="74.839" filterUnits="userSpaceOnUse" color-interpolation-filters="sRGB">
<feFlood flood-opacity="0" result="BackgroundImageFix"/>
<feColorMatrix in="SourceAlpha" type="matrix" values="0 0 0 0 0 0 0 0 0 0 0 0 0 0 0 0 0 0 127 0" result="hardAlpha"/>
<feOffset dy="4"/>
<feGaussianBlur stdDeviation="2"/>
<feComposite in2="hardAlpha" operator="out"/>
<feColorMatrix type="matrix" values="0 0 0 0 0 0 0 0 0 0 0 0 0 0 0 0 0 0 0.25 0"/>
<feBlend mode="normal" in2="BackgroundImageFix" result="effect1_dropShadow_211_10"/>
<feBlend mode="normal" in="SourceGraphic" in2="effect1_dropShadow_211_10" result="shape"/>
</filter>
</defs>
</svg>
